<svg width="122" height="12" viewBox="0 0 122 12" fill="none" xmlns="http://www.w3.org/2000/svg">
<path d="M4.205 11.135C2.965 11.135 2.01 10.79 1.34 10.1C0.68 9.4 0.35 8.395 0.35 7.085V0.274999H1.655V6.935C1.655 7.495 1.705 7.975 1.805 8.375C1.905 8.765 2.06 9.085 2.27 9.335C2.48 9.585 2.745 9.77 3.065 9.89C3.395 10 3.785 10.055 4.235 10.055C4.665 10.055 5.045 10.005 5.375 9.905C5.715 9.805 6 9.63 6.23 9.38C6.47 9.13 6.65 8.795 6.77 8.375C6.9 7.945 6.965 7.4 6.965 6.74V0.274999H8.27V6.92C8.27 8.23 7.935 9.26 7.265 10.01C6.605 10.76 5.585 11.135 4.205 11.135ZM15.2751 11.135C14.5551 11.135 13.9451 11.045 13.4451 10.865C12.9551 10.675 12.5501 10.425 12.2301 10.115C11.9101 9.805 11.6651 9.445 11.4951 9.035C11.3351 8.625 11.2301 8.19 11.1801 7.73H12.4401C12.4801 8.05 12.5501 8.355 12.6501 8.645C12.7501 8.925 12.9051 9.175 13.1151 9.395C13.3251 9.605 13.6001 9.775 13.9401 9.905C14.2901 10.025 14.7351 10.085 15.2751 10.085C15.6151 10.085 15.9351 10.04 16.2351 9.95C16.5351 9.85 16.7951 9.71 17.0151 9.53C17.2351 9.35 17.4051 9.135 17.5251 8.885C17.6551 8.635 17.7201 8.36 17.7201 8.06C17.7201 7.76 17.6801 7.5 17.6001 7.28C17.5201 7.05 17.3801 6.855 17.1801 6.695C16.9901 6.535 16.7251 6.4 16.3851 6.29C16.0551 6.18 15.6351 6.085 15.1251 6.005C14.5651 5.915 14.0601 5.8 13.6101 5.66C13.1701 5.52 12.7951 5.34 12.4851 5.12C12.1751 4.89 11.9401 4.61 11.7801 4.28C11.6201 3.94 11.5401 3.53 11.5401 3.05C11.5401 2.64 11.6251 2.26 11.7951 1.91C11.9651 1.55 12.2001 1.24 12.5001 0.979999C12.8101 0.72 13.1751 0.515 13.5951 0.364999C14.0151 0.214999 14.4801 0.139999 14.9901 0.139999C16.0701 0.139999 16.9251 0.394999 17.5551 0.904999C18.1951 1.405 18.5701 2.135 18.6801 3.095H17.5101C17.3801 2.415 17.1151 1.93 16.7151 1.64C16.3151 1.34 15.7401 1.19 14.9901 1.19C14.2501 1.19 13.6901 1.355 13.3101 1.685C12.9401 2.005 12.7551 2.42 12.7551 2.93C12.7551 3.19 12.7851 3.425 12.8451 3.635C12.9151 3.835 13.0401 4.01 13.2201 4.16C13.4101 4.31 13.6701 4.445 14.0001 4.565C14.3401 4.675 14.7851 4.77 15.3351 4.85C15.9351 4.94 16.4601 5.06 16.9101 5.21C17.3601 5.36 17.7401 5.555 18.0501 5.795C18.3601 6.035 18.5901 6.33 18.7401 6.68C18.9001 7.03 18.9801 7.46 18.9801 7.97C18.9801 8.42 18.8851 8.84 18.6951 9.23C18.5151 9.61 18.2601 9.945 17.9301 10.235C17.6001 10.515 17.2051 10.735 16.7451 10.895C16.2951 11.055 15.8051 11.135 15.2751 11.135ZM22.1402 0.274999H28.3952V1.34H23.4452V4.985H27.4352V6.05H23.4452V9.935H28.6652V11H22.1402V0.274999ZM31.5621 0.274999H34.7871C35.2971 0.274999 35.7771 0.329999 36.2271 0.439999C36.6871 0.55 37.0871 0.725 37.4271 0.965C37.7671 1.205 38.0371 1.515 38.2371 1.895C38.4371 2.265 38.5371 2.72 38.5371 3.26V3.32C38.5371 3.76 38.4671 4.15 38.3271 4.49C38.1871 4.82 37.9971 5.105 37.7571 5.345C37.5171 5.575 37.2371 5.765 36.9171 5.915C36.5971 6.065 36.2521 6.175 35.8821 6.245L39.1671 11H37.7121L34.5171 6.335H32.8671V11H31.5621V0.274999ZM34.8771 5.3C35.6471 5.3 36.2321 5.135 36.6321 4.805C37.0321 4.475 37.2321 3.98 37.2321 3.32V3.26C37.2321 2.9 37.1771 2.595 37.0671 2.345C36.9571 2.095 36.8021 1.895 36.6021 1.745C36.4021 1.595 36.1521 1.49 35.8521 1.43C35.5621 1.36 35.2371 1.325 34.8771 1.325H32.8671V5.3H34.8771ZM45.2253 11.135C44.5053 11.135 43.8953 11.045 43.3953 10.865C42.9053 10.675 42.5003 10.425 42.1803 10.115C41.8603 9.805 41.6153 9.445 41.4453 9.035C41.2853 8.625 41.1803 8.19 41.1303 7.73H42.3903C42.4303 8.05 42.5003 8.355 42.6003 8.645C42.7003 8.925 42.8553 9.175 43.0653 9.395C43.2753 9.605 43.5503 9.775 43.8903 9.905C44.2403 10.025 44.6853 10.085 45.2253 10.085C45.5653 10.085 45.8853 10.04 46.1853 9.95C46.4853 9.85 46.7453 9.71 46.9653 9.53C47.1853 9.35 47.3553 9.135 47.4753 8.885C47.6053 8.635 47.6703 8.36 47.6703 8.06C47.6703 7.76 47.6303 7.5 47.5503 7.28C47.4703 7.05 47.3303 6.855 47.1303 6.695C46.9403 6.535 46.6753 6.4 46.3353 6.29C46.0053 6.18 45.5853 6.085 45.0753 6.005C44.5153 5.915 44.0103 5.8 43.5603 5.66C43.1203 5.52 42.7453 5.34 42.4353 5.12C42.1253 4.89 41.8903 4.61 41.7303 4.28C41.5703 3.94 41.4903 3.53 41.4903 3.05C41.4903 2.64 41.5753 2.26 41.7453 1.91C41.9153 1.55 42.1503 1.24 42.4503 0.979999C42.7603 0.72 43.1253 0.515 43.5453 0.364999C43.9653 0.214999 44.4303 0.139999 44.9403 0.139999C46.0203 0.139999 46.8753 0.394999 47.5053 0.904999C48.1453 1.405 48.5203 2.135 48.6303 3.095H47.4603C47.3303 2.415 47.0653 1.93 46.6653 1.64C46.2653 1.34 45.6903 1.19 44.9403 1.19C44.2003 1.19 43.6403 1.355 43.2603 1.685C42.8903 2.005 42.7053 2.42 42.7053 2.93C42.7053 3.19 42.7353 3.425 42.7953 3.635C42.8653 3.835 42.9903 4.01 43.1703 4.16C43.3603 4.31 43.6203 4.445 43.9503 4.565C44.2903 4.675 44.7353 4.77 45.2853 4.85C45.8853 4.94 46.4103 5.06 46.8603 5.21C47.3103 5.36 47.6903 5.555 48.0003 5.795C48.3103 6.035 48.5403 6.33 48.6903 6.68C48.8503 7.03 48.9303 7.46 48.9303 7.97C48.9303 8.42 48.8353 8.84 48.6453 9.23C48.4653 9.61 48.2103 9.945 47.8803 10.235C47.5503 10.515 47.1553 10.735 46.6953 10.895C46.2453 11.055 45.7553 11.135 45.2253 11.135ZM56.8101 0.274999H58.1151V9.935H63.0201V11H56.8101V0.274999ZM70.0941 10.055C70.6941 10.055 71.2291 9.95 71.6991 9.74C72.1791 9.52 72.5841 9.22 72.9141 8.84C73.2441 8.45 73.4991 7.985 73.6791 7.445C73.8591 6.905 73.9491 6.31 73.9491 5.66V5.54C73.9491 4.94 73.8591 4.375 73.6791 3.845C73.5091 3.315 73.2591 2.855 72.9291 2.465C72.5991 2.075 72.1941 1.765 71.7141 1.535C71.2341 1.305 70.6841 1.19 70.0641 1.19C69.4441 1.19 68.8891 1.3 68.3991 1.52C67.9091 1.73 67.4941 2.03 67.1541 2.42C66.8241 2.81 66.5691 3.275 66.3891 3.815C66.2191 4.345 66.1341 4.93 66.1341 5.57V5.69C66.1341 6.34 66.2341 6.935 66.4341 7.475C66.6441 8.005 66.9241 8.465 67.2741 8.855C67.6341 9.235 68.0541 9.53 68.5341 9.74C69.0141 9.95 69.5341 10.055 70.0941 10.055ZM70.0941 11.135C69.3041 11.135 68.5791 10.995 67.9191 10.715C67.2691 10.425 66.7091 10.035 66.2391 9.545C65.7791 9.055 65.4191 8.48 65.1591 7.82C64.9091 7.16 64.7841 6.455 64.7841 5.705V5.585C64.7841 4.825 64.9091 4.115 65.1591 3.455C65.4191 2.785 65.7791 2.205 66.2391 1.715C66.7091 1.225 67.2641 0.839999 67.9041 0.559999C68.5541 0.279999 69.2741 0.139999 70.0641 0.139999C70.8541 0.139999 71.5691 0.279999 72.2091 0.559999C72.8491 0.839999 73.3991 1.225 73.8591 1.715C74.3191 2.205 74.6741 2.78 74.9241 3.44C75.1741 4.1 75.2991 4.805 75.2991 5.555V5.675C75.2991 6.435 75.1741 7.145 74.9241 7.805C74.6741 8.465 74.3191 9.045 73.8591 9.545C73.4091 10.035 72.8641 10.425 72.2241 10.715C71.5841 10.995 70.8741 11.135 70.0941 11.135ZM77.0537 0.274999H78.3437L81.5387 9.74L84.7337 0.274999H85.9637L82.2587 11H80.6987L77.0537 0.274999ZM88.6939 0.274999H94.9489V1.34H89.9989V4.985H93.9889V6.05H89.9989V9.935H95.2189V11H88.6939V0.274999ZM106.601 11.135C105.361 11.135 104.406 10.79 103.736 10.1C103.076 9.4 102.746 8.395 102.746 7.085V0.274999H104.051V6.935C104.051 7.495 104.101 7.975 104.201 8.375C104.301 8.765 104.456 9.085 104.666 9.335C104.876 9.585 105.141 9.77 105.461 9.89C105.791 10 106.181 10.055 106.631 10.055C107.061 10.055 107.441 10.005 107.771 9.905C108.111 9.805 108.396 9.63 108.626 9.38C108.866 9.13 109.046 8.795 109.166 8.375C109.296 7.945 109.361 7.4 109.361 6.74V0.274999H110.666V6.92C110.666 8.23 110.331 9.26 109.661 10.01C109.001 10.76 107.981 11.135 106.601 11.135ZM117.671 11.135C116.951 11.135 116.341 11.045 115.841 10.865C115.351 10.675 114.946 10.425 114.626 10.115C114.306 9.805 114.061 9.445 113.891 9.035C113.731 8.625 113.626 8.19 113.576 7.73H114.836C114.876 8.05 114.946 8.355 115.046 8.645C115.146 8.925 115.301 9.175 115.511 9.395C115.721 9.605 115.996 9.775 116.336 9.905C116.686 10.025 117.131 10.085 117.671 10.085C118.011 10.085 118.331 10.04 118.631 9.95C118.931 9.85 119.191 9.71 119.411 9.53C119.631 9.35 119.801 9.135 119.921 8.885C120.051 8.635 120.116 8.36 120.116 8.06C120.116 7.76 120.076 7.5 119.996 7.28C119.916 7.05 119.776 6.855 119.576 6.695C119.386 6.535 119.121 6.4 118.781 6.29C118.451 6.18 118.031 6.085 117.521 6.005C116.961 5.915 116.456 5.8 116.006 5.66C115.566 5.52 115.191 5.34 114.881 5.12C114.571 4.89 114.336 4.61 114.176 4.28C114.016 3.94 113.936 3.53 113.936 3.05C113.936 2.64 114.021 2.26 114.191 1.91C114.361 1.55 114.596 1.24 114.896 0.979999C115.206 0.72 115.571 0.515 115.991 0.364999C116.411 0.214999 116.876 0.139999 117.386 0.139999C118.466 0.139999 119.321 0.394999 119.951 0.904999C120.591 1.405 120.966 2.135 121.076 3.095H119.906C119.776 2.415 119.511 1.93 119.111 1.64C118.711 1.34 118.136 1.19 117.386 1.19C116.646 1.19 116.086 1.355 115.706 1.685C115.336 2.005 115.151 2.42 115.151 2.93C115.151 3.19 115.181 3.425 115.241 3.635C115.311 3.835 115.436 4.01 115.616 4.16C115.806 4.31 116.066 4.445 116.396 4.565C116.736 4.675 117.181 4.77 117.731 4.85C118.331 4.94 118.856 5.06 119.306 5.21C119.756 5.36 120.136 5.555 120.446 5.795C120.756 6.035 120.986 6.33 121.136 6.68C121.296 7.03 121.376 7.46 121.376 7.97C121.376 8.42 121.281 8.84 121.091 9.23C120.911 9.61 120.656 9.945 120.326 10.235C119.996 10.515 119.601 10.735 119.141 10.895C118.691 11.055 118.201 11.135 117.671 11.135Z" fill="black"/>
</svg>
