<svg width="123" height="12" viewBox="0 0 123 12" fill="none" xmlns="http://www.w3.org/2000/svg">
<path d="M0.44 0.274999H1.745V5.135H7.385V0.274999H8.69V11H7.385V6.23H1.745V11H0.44V0.274999ZM12.3978 0.274999H13.7028V11H12.3978V0.274999ZM22.0738 11.135C21.2438 11.135 20.5088 11 19.8688 10.73C19.2288 10.46 18.6838 10.085 18.2338 9.605C17.7938 9.115 17.4588 8.54 17.2288 7.88C16.9988 7.21 16.8838 6.485 16.8838 5.705V5.585C16.8838 4.805 17.0088 4.08 17.2588 3.41C17.5088 2.74 17.8638 2.16 18.3238 1.67C18.7838 1.18 19.3288 0.8 19.9588 0.53C20.5988 0.25 21.3038 0.11 22.0738 0.11C22.6038 0.11 23.1138 0.175 23.6038 0.304999C24.0938 0.434999 24.5338 0.639999 24.9238 0.919999C25.3238 1.19 25.6538 1.54 25.9138 1.97C26.1838 2.4 26.3588 2.915 26.4388 3.515H25.1338C24.9838 2.665 24.6338 2.06 24.0838 1.7C23.5438 1.33 22.8838 1.145 22.1038 1.145C21.4838 1.145 20.9338 1.255 20.4538 1.475C19.9738 1.685 19.5688 1.985 19.2388 2.375C18.9088 2.765 18.6588 3.23 18.4888 3.77C18.3188 4.31 18.2338 4.91 18.2338 5.57V5.69C18.2338 6.35 18.3138 6.955 18.4738 7.505C18.6438 8.045 18.8888 8.505 19.2088 8.885C19.5288 9.265 19.9288 9.56 20.4088 9.77C20.8888 9.98 21.4438 10.085 22.0738 10.085C22.6538 10.085 23.1538 9.995 23.5738 9.815C23.9938 9.635 24.3388 9.395 24.6088 9.095C24.8888 8.785 25.0938 8.425 25.2238 8.015C25.3638 7.595 25.4388 7.145 25.4488 6.665H22.3138V5.585H26.7238V6.38C26.7238 7.16 26.6088 7.845 26.3788 8.435C26.1588 9.025 25.8438 9.52 25.4338 9.92C25.0238 10.32 24.5338 10.625 23.9638 10.835C23.3938 11.035 22.7638 11.135 22.0738 11.135ZM29.8482 0.274999H31.1532V5.135H36.7932V0.274999H38.0982V11H36.7932V6.23H31.1532V11H29.8482V0.274999ZM41.731 0.274999H47.986V1.34H43.036V4.985H47.026V6.05H43.036V9.935H48.256V11H41.731V0.274999ZM54.6179 11.135C53.8979 11.135 53.2879 11.045 52.7879 10.865C52.2979 10.675 51.8929 10.425 51.5729 10.115C51.2529 9.805 51.0079 9.445 50.8379 9.035C50.6779 8.625 50.5729 8.19 50.5229 7.73H51.7829C51.8229 8.05 51.8929 8.355 51.9929 8.645C52.0929 8.925 52.2479 9.175 52.4579 9.395C52.6679 9.605 52.9429 9.775 53.2829 9.905C53.6329 10.025 54.0779 10.085 54.6179 10.085C54.9579 10.085 55.2779 10.04 55.5779 9.95C55.8779 9.85 56.1379 9.71 56.3579 9.53C56.5779 9.35 56.7479 9.135 56.8679 8.885C56.9979 8.635 57.0629 8.36 57.0629 8.06C57.0629 7.76 57.0229 7.5 56.9429 7.28C56.8629 7.05 56.7229 6.855 56.5229 6.695C56.3329 6.535 56.0679 6.4 55.7279 6.29C55.3979 6.18 54.9779 6.085 54.4679 6.005C53.9079 5.915 53.4029 5.8 52.9529 5.66C52.5129 5.52 52.1379 5.34 51.8279 5.12C51.5179 4.89 51.2829 4.61 51.1229 4.28C50.9629 3.94 50.8829 3.53 50.8829 3.05C50.8829 2.64 50.9679 2.26 51.1379 1.91C51.3079 1.55 51.5429 1.24 51.8429 0.979999C52.1529 0.72 52.5179 0.515 52.9379 0.364999C53.3579 0.214999 53.8229 0.139999 54.3329 0.139999C55.4129 0.139999 56.2679 0.394999 56.8979 0.904999C57.5379 1.405 57.9129 2.135 58.0229 3.095H56.8529C56.7229 2.415 56.4579 1.93 56.0579 1.64C55.6579 1.34 55.0829 1.19 54.3329 1.19C53.5929 1.19 53.0329 1.355 52.6529 1.685C52.2829 2.005 52.0979 2.42 52.0979 2.93C52.0979 3.19 52.1279 3.425 52.1879 3.635C52.2579 3.835 52.3829 4.01 52.5629 4.16C52.7529 4.31 53.0129 4.445 53.3429 4.565C53.6829 4.675 54.1279 4.77 54.6779 4.85C55.2779 4.94 55.8029 5.06 56.2529 5.21C56.7029 5.36 57.0829 5.555 57.3929 5.795C57.7029 6.035 57.9329 6.33 58.0829 6.68C58.2429 7.03 58.3229 7.46 58.3229 7.97C58.3229 8.42 58.2279 8.84 58.0379 9.23C57.8579 9.61 57.6029 9.945 57.2729 10.235C56.9429 10.515 56.5479 10.735 56.0879 10.895C55.6379 11.055 55.1479 11.135 54.6179 11.135ZM63.3071 1.34H60.1871V0.274999H67.7321V1.34H64.6121V11H63.3071V1.34ZM75.1705 0.274999H78.3955C78.9055 0.274999 79.3855 0.329999 79.8355 0.439999C80.2955 0.55 80.6955 0.725 81.0355 0.965C81.3755 1.205 81.6455 1.515 81.8455 1.895C82.0455 2.265 82.1455 2.72 82.1455 3.26V3.32C82.1455 3.76 82.0755 4.15 81.9355 4.49C81.7955 4.82 81.6055 5.105 81.3655 5.345C81.1255 5.575 80.8455 5.765 80.5255 5.915C80.2055 6.065 79.8605 6.175 79.4905 6.245L82.7755 11H81.3205L78.1255 6.335H76.4755V11H75.1705V0.274999ZM78.4855 5.3C79.2555 5.3 79.8405 5.135 80.2405 4.805C80.6405 4.475 80.8405 3.98 80.8405 3.32V3.26C80.8405 2.9 80.7855 2.595 80.6755 2.345C80.5655 2.095 80.4105 1.895 80.2105 1.745C80.0105 1.595 79.7605 1.49 79.4605 1.43C79.1705 1.36 78.8455 1.325 78.4855 1.325H76.4755V5.3H78.4855ZM88.3952 0.274999H90.1052L93.7352 11H92.4452L91.3952 7.91H86.9702L85.9352 11H84.7052L88.3952 0.274999ZM87.3302 6.875H91.0502L89.1902 1.355L87.3302 6.875ZM97.6987 1.34H94.5787V0.274999H102.124V1.34H99.0037V11H97.6987V1.34ZM104.842 0.274999H111.097V1.34H106.147V4.985H110.137V6.05H106.147V9.935H111.367V11H104.842V0.274999ZM117.039 9.935C117.729 9.935 118.329 9.835 118.839 9.635C119.359 9.435 119.789 9.15 120.129 8.78C120.479 8.41 120.739 7.965 120.909 7.445C121.089 6.915 121.179 6.32 121.179 5.66V5.54C121.179 4.92 121.099 4.355 120.939 3.845C120.789 3.325 120.544 2.88 120.204 2.51C119.874 2.13 119.444 1.84 118.914 1.64C118.394 1.43 117.764 1.325 117.024 1.325H115.569V9.935H117.039ZM114.264 0.274999H117.099C118.019 0.274999 118.819 0.41 119.499 0.68C120.179 0.95 120.744 1.32 121.194 1.79C121.644 2.26 121.979 2.815 122.199 3.455C122.419 4.095 122.529 4.79 122.529 5.54V5.675C122.529 6.415 122.419 7.11 122.199 7.76C121.989 8.41 121.659 8.975 121.209 9.455C120.759 9.935 120.189 10.315 119.499 10.595C118.819 10.865 118.009 11 117.069 11H114.264V0.274999Z" fill="black"/>
</svg>
